<svg width="32" height="32" viewBox="0 0 32 32" fill="var(--darker-grey)" xmlns="http://www.w3.org/2000/svg">
  <path
    d="M16 20.6666C15.8245 20.6676 15.6506 20.634 15.4881 20.5676C15.3257 20.5013 15.1779 20.4035 15.0533 20.2799L9.72 14.9466C9.59569 14.8223 9.49707 14.6747 9.42979 14.5123C9.36251 14.3498 9.32788 14.1757 9.32788 13.9999C9.32788 13.8241 9.36251 13.65 9.42979 13.4876C9.49707 13.3252 9.59569 13.1776 9.72 13.0533C9.84432 12.9289 9.99191 12.8303 10.1543 12.763C10.3168 12.6958 10.4909 12.6611 10.6667 12.6611C10.8425 12.6611 11.0166 12.6958 11.179 12.763C11.3414 12.8303 11.489 12.9289 11.6133 13.0533L16 17.4666L20.4 13.2266C20.5227 13.0902 20.6721 12.9806 20.8391 12.9046C21.006 12.8286 21.1869 12.7879 21.3703 12.785C21.5537 12.7821 21.7357 12.8171 21.905 12.8877C22.0743 12.9584 22.2271 13.0632 22.354 13.1956C22.481 13.3281 22.5792 13.4853 22.6426 13.6574C22.706 13.8295 22.7332 14.0129 22.7225 14.196C22.7118 14.3791 22.6634 14.558 22.5804 14.7216C22.4974 14.8852 22.3815 15.0298 22.24 15.1466L16.9067 20.2933C16.6628 20.5283 16.3387 20.6618 16 20.6666Z"
    fill="inherit" />
</svg>