<?xml version="1.0" standalone="no"?>
<!DOCTYPE svg PUBLIC "-//W3C//DTD SVG 20010904//EN" "http://www.w3.org/TR/2001/REC-SVG-20010904/DTD/svg10.dtd">
<svg version="1.0" xmlns="http://www.w3.org/2000/svg" width="700.000000pt" height="700.000000pt"
  viewBox="0 0 700.000000 700.000000" preserveAspectRatio="xMidYMid meet">
  <g transform="translate(0.000000,700.000000) scale(0.100000,-0.100000)" fill="#000000" stroke="none">
    <path d="M3387 6614 c-1 -1 -38 -4 -82 -7 -92 -7 -208 -37 -280 -73 -129 -65
-308 -199 -950 -711 -501 -399 -485 -387 -575 -436 -61 -34 -191 -83 -235 -90
-97 -15 -224 -81 -268 -139 -28 -37 -62 -129 -74 -204 -14 -84 -10 -432 6
-502 27 -122 103 -208 217 -245 56 -17 90 -23 189 -32 89 -8 154 -39 176 -83
19 -36 18 -60 -6 -712 -24 -663 -25 -964 -1 -1100 2 -14 7 -48 10 -77 8 -68
31 -177 62 -292 93 -342 287 -637 542 -821 114 -82 343 -200 512 -263 92 -34
309 -101 360 -111 14 -2 80 -16 147 -30 68 -14 144 -28 170 -31 27 -4 55 -8
63 -10 8 -2 38 -7 65 -10 28 -3 61 -8 75 -10 22 -4 83 -10 190 -20 287 -27
864 -27 1170 -1 19 2 71 6 115 10 89 8 153 14 205 21 19 3 55 8 80 10 52 6
107 14 135 19 11 2 40 7 65 11 25 4 54 9 65 11 11 2 34 7 50 9 78 14 224 59
262 82 80 47 162 166 193 278 36 131 47 246 45 467 -1 123 -5 243 -9 268 -43
259 -114 348 -262 325 -25 -3 -53 -8 -62 -10 -32 -6 -197 -54 -242 -70 -162
-58 -322 -89 -455 -90 -124 0 -177 7 -267 35 -209 66 -406 288 -469 530 -28
110 -28 141 -4 810 2 47 6 180 9 295 13 426 25 441 314 430 182 -7 289 -12
507 -21 336 -14 452 -11 526 14 182 62 239 206 240 604 0 213 -31 339 -99 399
-43 38 -122 76 -177 85 -22 3 -42 7 -45 9 -8 5 -216 15 -620 30 -63 2 -189 7
-280 10 -194 7 -230 15 -264 56 -33 39 -40 67 -40 159 1 71 13 455 20 585 1
33 4 132 5 220 l3 161 -33 61 c-55 103 -140 144 -343 169 -58 7 -98 9 -392 19
-109 4 -212 8 -228 9 -16 1 -30 1 -31 0z" />
  </g>
</svg>