<svg width="105" height="48" viewBox="0 0 105 48" fill="none" xmlns="http://www.w3.org/2000/svg">
  <path
    d="M40.7231 28.3899C41.1498 27.8849 41.9043 27.8395 42.3372 28.3381C42.4238 28.4352 42.5103 28.5194 42.5907 28.5971C43.1102 29.0503 43.7904 29.2704 44.6748 29.2704C44.7675 29.2704 44.8603 29.2704 44.9778 29.264L50.3146 28.9467C51.0134 28.9143 52.0276 28.7848 52.7264 28.0467C52.9181 27.846 53.0789 27.6129 53.2026 27.354C53.3448 27.0626 53.6602 26.9202 53.9509 27.0302C55.738 27.736 57.7664 28.0921 60.005 28.0921C60.1225 28.0921 60.24 28.0921 60.3575 28.0921C63.3815 28.0467 65.8861 27.7554 67.933 27.218C68.2237 27.1403 68.5329 27.2957 68.6442 27.587C69.009 28.5194 69.9676 29.6913 72.5154 29.7625H72.7071C73.5852 29.7625 74.5685 29.7366 75.6322 29.6848C76.7824 29.6265 77.809 29.5488 78.6809 29.4452C79.893 29.3028 80.7649 28.9402 81.3462 28.3381C81.9337 27.736 82.28 26.9979 82.3419 26.2144V26.1691C82.447 24.1879 82.3852 20.7369 82.1564 15.6285C81.9275 10.6172 81.674 6.63532 81.4019 3.78004L81.3957 3.71529C81.2473 2.59519 80.9443 1.7535 80.4743 1.14489C79.9054 0.387361 79.0272 0.0183105 77.8646 0.0183105C77.7719 0.0183105 77.6729 0.0183105 77.574 0.0247851L70.8086 0.354988C69.479 0.419734 68.539 0.892378 68.0072 1.76645C67.6176 2.40743 67.4074 3.26207 67.3641 4.38217C67.3455 4.91956 67.3332 5.5476 67.327 6.2598C67.327 6.48641 67.1229 6.65475 66.9126 6.60295L66.5478 6.51231C65.0203 6.12383 63.4125 5.9296 61.7613 5.9296C61.65 5.9296 61.5325 5.9296 61.4212 5.9296C59.6773 5.95549 58.1807 6.11088 56.9687 6.38282C55.7319 6.66122 54.5136 7.10797 53.351 7.70363C52.1698 8.31224 51.1185 9.05034 50.2157 9.89203C50.024 10.0668 49.8446 10.2611 49.6715 10.4553C49.2571 10.928 48.6202 11.1157 48.0327 10.9344C47.1731 10.6755 46.2331 10.546 45.2066 10.546C44.9963 10.546 44.7861 10.5524 44.5696 10.5589C43.2895 10.6237 42.1084 10.9344 41.0385 11.4848C40.4881 11.7697 39.8574 11.7502 39.2884 11.5107C38.8988 11.3488 38.4474 11.2711 37.9341 11.2711C37.8537 11.2711 37.7672 11.2711 37.6744 11.2776L34.3226 11.4395C33.8959 11.4589 33.6424 10.9603 33.8959 10.5978C34.4401 9.83376 34.7926 8.81725 34.7988 7.46407C34.7988 5.86485 34.1866 4.52461 33.0116 3.5858C31.9294 2.73763 30.4885 2.31678 28.59 2.31031H28.5405C22.6348 2.31031 21.7504 5.69651 21.7443 7.71658V8.09858C21.7443 8.26692 21.6329 8.40936 21.4722 8.44173L20.7672 8.58417C20.4456 8.64892 20.124 8.49353 19.9571 8.20217C19.8643 8.04031 19.7592 7.89139 19.6293 7.75542C19.1037 7.19861 18.3554 6.90078 17.403 6.86193L15.7643 6.79719C15.4489 6.78424 15.1953 6.50583 15.2077 6.16915L15.2572 4.80949C15.2881 3.87068 14.9418 3.06783 14.2739 2.54339C13.7483 2.12902 13.0247 1.92183 11.9301 1.88299L10.4027 1.83119C10.3285 1.83119 10.2543 1.82472 10.1801 1.82472C9.30811 1.82472 8.52892 2.0319 7.86722 2.4398C7.34776 2.75705 6.53765 3.36566 5.30702 4.35627C3.90942 5.48285 3.3343 5.92959 3.09313 6.10441C2.90142 6.24685 2.69735 6.33749 2.46854 6.38929C1.62132 6.57705 0.98436 6.972 0.582396 7.56119C0.223721 8.08563 0.0381991 8.76546 0.00727876 9.69132C-0.0174575 10.4359 0.0196469 10.9862 0.137144 11.4395C0.242273 11.8797 0.545292 12.6826 1.41724 13.1682C1.81921 13.3948 2.07894 13.8221 2.06039 14.2947L1.97999 16.5479C1.85631 20.083 2.91379 22.6081 5.14005 24.0584C6.14805 24.6864 7.28592 25.1526 8.51655 25.431C9.66678 25.69 10.8974 25.8519 12.1713 25.8972C12.5609 25.9101 12.9505 25.9166 13.3339 25.9166C14.1935 25.9166 15.0593 25.8778 15.9189 25.8065C16.9145 25.7224 18.3307 25.4116 18.9862 25.2497C19.1902 25.1979 19.4067 25.2821 19.5242 25.4634C19.6726 25.69 19.8519 25.9037 20.056 26.0914C20.6311 26.6223 21.4474 26.8878 22.6224 26.9331C23.0491 26.9525 23.5067 26.959 23.9891 26.959C24.3972 26.959 24.8301 26.9525 25.2754 26.9396C26.2401 26.9137 27.0935 26.8619 27.8108 26.7907C28.3488 26.7389 28.8126 26.6288 29.2146 26.4605C29.4125 26.3763 29.6351 26.5058 29.666 26.7324L29.7155 27.0561C29.8268 27.7813 30.1917 28.4287 30.7544 28.9273C31.144 29.2704 31.8243 29.6848 32.8756 29.6848H33.0364C34.5514 29.6848 35.6151 29.6719 36.2768 29.6395C36.957 29.6071 37.6558 29.5488 38.3546 29.4582C39.3998 29.3287 40.1604 28.9985 40.6799 28.4482C40.6984 28.4223 40.7108 28.4028 40.7231 28.3899Z"
    fill="var(--darker-grey)" />
  <path
    d="M80.5422 15.4925C80.3134 10.4876 80.066 6.56404 79.7939 3.72818C79.6888 2.92533 79.4971 2.34909 79.2188 1.99299C78.9405 1.63689 78.4211 1.4815 77.6419 1.52035L70.8765 1.85055C70.1035 1.8894 69.5964 2.09658 69.3676 2.47211C69.1388 2.85411 69.0027 3.44329 68.9718 4.25262C68.9223 5.43746 68.9223 7.06258 68.9718 9.12149C68.2606 8.64238 67.3269 8.2539 66.1581 7.95607C64.6553 7.57407 63.0784 7.39278 61.4334 7.41868C59.7885 7.44458 58.4094 7.58702 57.2963 7.83305C56.1832 8.08556 55.101 8.48051 54.0497 9.0179C52.9984 9.56176 52.077 10.2027 51.2792 10.9473C50.568 11.6142 49.9991 12.4365 49.5477 13.3947C49.5415 13.3882 49.5415 13.3882 49.5353 13.3818C48.317 12.3912 46.6783 11.9444 44.6252 12.048C42.5721 12.1516 40.8591 13.0127 39.4986 14.6314V14.6055C39.412 13.9062 39.2574 13.4206 39.0286 13.1422C38.7998 12.8638 38.3731 12.7343 37.7423 12.7667L32.3003 13.0321C31.6695 13.0645 31.2552 13.2264 31.0635 13.5307C30.8718 13.835 30.7605 14.463 30.7296 15.4277C30.6987 16.3924 30.7419 18.1729 30.8594 20.7757C30.9769 23.3785 31.1254 25.3079 31.3171 26.5575C31.3665 26.8877 31.5335 27.1726 31.7994 27.4122C32.0715 27.6517 32.4302 27.7683 32.8754 27.7683C34.44 27.7683 35.547 27.7553 36.2025 27.7229C36.8518 27.6906 37.5073 27.6323 38.169 27.5546C38.8245 27.4769 39.2821 27.3021 39.5295 27.0366C39.7769 26.7712 39.9253 26.4733 39.9624 26.1431C40.0304 25.2043 40.0118 23.4562 39.8944 20.8923L39.814 19.1182C39.7892 18.5744 39.9438 18.147 40.2716 17.8233C40.5993 17.5061 40.9766 17.3377 41.3971 17.3183C41.8176 17.2989 42.1701 17.4284 42.4607 17.7068C42.7514 17.9852 42.9122 18.4125 42.9369 18.9952L43.2276 26.1043C43.2461 26.551 43.376 26.8812 43.6233 27.0949C43.8645 27.3086 44.285 27.3992 44.8787 27.3668L50.2341 27.0431C50.902 27.0107 51.3472 26.8748 51.5699 26.6417C51.7925 26.4086 51.9038 26.0396 51.8976 25.5345C51.8914 25.1784 51.8791 24.5763 51.842 23.7346C51.91 23.7864 51.978 23.8447 52.0522 23.8965C54.229 25.4827 56.9871 26.2467 60.3265 26.1885C64.3585 26.1237 67.4567 25.6058 69.6273 24.641C69.6892 24.6151 69.7448 24.5892 69.8005 24.5569C69.8747 25.2561 69.9551 25.8647 70.0355 26.3698C70.1468 27.315 70.9693 27.8071 72.5029 27.8524C73.3996 27.8589 74.4076 27.833 75.5393 27.7747C76.6648 27.7229 77.648 27.6452 78.4767 27.5417C79.3054 27.4445 79.8805 27.2309 80.1959 26.9071C80.5113 26.5834 80.6844 26.2338 80.7153 25.8518C80.8328 23.9612 80.771 20.5038 80.5422 15.4925ZM62.1075 11.3941C63.2577 11.3746 63.8452 12.0545 63.87 13.4271C63.8885 14.4501 63.1341 14.9745 61.6128 15.0004C61.5633 15.0004 60.9882 14.9616 59.8812 14.8903C59.9616 12.5789 60.7037 11.42 62.1075 11.3941ZM68.576 20.5944C68.0751 20.8923 67.4134 21.1901 66.5848 21.4815C65.7623 21.7728 64.7172 21.9282 63.4494 21.9541C62.1817 21.9735 61.2974 21.6757 60.7903 21.0541C60.2832 20.4326 59.9864 19.3578 59.8936 17.8233C61.6004 18.1017 63.2516 18.2247 64.8409 18.1988C66.727 18.1665 68.2112 17.9075 69.2996 17.4154C69.3305 17.9852 69.3614 18.5355 69.3923 19.06C69.4294 19.688 69.114 20.2837 68.5884 20.5944C68.5822 20.5944 68.576 20.5944 68.576 20.5944Z"
    fill="white" />
  <path
    d="M18.6334 18.7297C18.4107 18.7233 17.9717 18.8269 17.3347 19.0405C16.6916 19.2606 16.1597 19.3578 15.7269 19.3448C14.8487 19.3124 14.4035 19.0535 13.9397 18.5549C13.4759 18.0564 13.2347 17.4413 13.2223 16.7291L13.3522 12.9479C13.3584 12.676 13.4078 12.4688 13.4944 12.3199C13.581 12.1775 13.7665 12.1127 14.051 12.1192L17.2358 12.2422C17.7243 12.2616 18.0954 12.158 18.3489 11.9379C18.6025 11.7178 18.7447 11.1933 18.7694 10.3581C18.8003 9.52937 18.7014 8.99198 18.4726 8.75242C18.2438 8.51286 17.8665 8.38337 17.3347 8.36395L14.0572 8.23446C13.6923 8.22151 13.513 7.9949 13.5315 7.54815L13.6366 4.5569C13.649 4.18137 13.5377 3.89649 13.2965 3.70873C13.0553 3.52097 12.5792 3.4109 11.868 3.385L10.3344 3.32673C9.67885 3.30083 9.12847 3.43032 8.67703 3.70226C8.22559 3.98066 7.42785 4.5828 6.2838 5.50219C5.14593 6.42805 4.38529 7.02371 4.02043 7.29564C3.65557 7.56757 3.24742 7.74886 2.80217 7.84598C2.35692 7.9431 2.0539 8.11144 1.89311 8.34452C1.73233 8.57761 1.63957 8.97903 1.62102 9.54879C1.60246 10.1186 1.6272 10.5394 1.70141 10.8113C1.82509 11.3617 2.28889 11.653 3.08045 11.6854C3.53189 11.7048 3.74833 11.8796 3.73597 12.2163L3.59373 16.4054C3.49479 19.306 4.28016 21.3001 5.96223 22.4008C6.82181 22.9382 7.78653 23.3267 8.85018 23.5662C9.91384 23.8058 11.0393 23.9482 12.2267 23.9936C13.414 24.0389 14.3726 24 15.5661 23.8964C16.7534 23.7928 17.681 23.6439 18.3427 23.4367C18.9859 23.2101 19.326 22.485 19.3693 21.2678C19.4311 19.5973 19.1899 18.7492 18.6334 18.7297Z"
    fill="white" />
  <path
    d="M29.3319 12.1645C29.2886 11.6984 29.233 11.3099 29.1588 10.9927C31.8241 10.766 33.166 9.5294 33.1722 7.27625C33.1722 6.20795 32.7888 5.35978 32.022 4.74469C31.249 4.12314 30.1049 3.81236 28.5898 3.81236C25.1144 3.79941 23.3767 5.04252 23.3705 7.52876C23.3705 8.51937 23.7106 9.29632 24.3908 9.86608L21.9481 9.93082C21.2988 9.95025 20.8721 10.1121 20.668 10.4099C20.464 10.7142 20.3341 11.3552 20.2846 12.3264C20.2352 13.3041 20.2413 15.1234 20.3032 17.7974C20.3712 20.4714 20.4825 22.4462 20.6495 23.7346C20.6928 24.0713 20.8536 24.3626 21.1318 24.6151C21.4039 24.8677 21.9234 25.0036 22.6902 25.036C23.4571 25.0619 24.3043 25.0684 25.2442 25.0425C26.178 25.0166 26.9882 24.9712 27.6622 24.9C28.3363 24.8353 28.8063 24.6669 29.0722 24.4015C29.3319 24.136 29.4865 23.8317 29.536 23.495C29.6226 22.3814 29.6349 20.4649 29.5669 17.7586C29.4989 15.0522 29.4247 13.1811 29.3319 12.1645Z"
    fill="white" />
  <path
    d="M43.6543 31.7178L40.0799 43.1907H37.5197L35.3243 36.1982L33.129 43.1907H30.5688L26.9944 31.7178H29.8638L31.8983 38.7945L34.205 31.7178H36.4498L38.7565 38.7945L40.791 31.7178H43.6543Z"
    fill="var(--darker-grey)" />
  <path
    d="M51.5512 39.06C51.5512 41.5786 49.7888 43.3332 47.2904 43.3332C44.7921 43.3332 43.011 41.5721 43.011 39.06C43.011 36.5608 44.7859 34.7673 47.2904 34.7673C49.7888 34.7673 51.5512 36.5608 51.5512 39.06ZM49.1147 39.06C49.1147 37.8881 48.3603 37.0464 47.2904 37.0464C46.202 37.0464 45.4476 37.8881 45.4476 39.06C45.4476 40.2513 46.202 41.0736 47.2904 41.0736C48.3603 41.0736 49.1147 40.2513 49.1147 39.06Z"
    fill="var(--darker-grey)" />
  <path
    d="M58.1187 37.4348C56.8509 37.4866 56.0532 37.8362 55.441 38.4578V43.1195H52.8313V34.9874H55.441V35.8615C56.1274 35.2399 56.9622 34.8579 58.1187 34.8579V37.4348Z"
    fill="var(--darker-grey)" />
  <path
    d="M63.0844 40.3031L62.0084 41.5073V43.1195H59.3987V31.2128H62.0084V38.024L64.6985 34.9874H67.7905L64.8407 38.3089L68.0441 43.1195H64.9397L63.0844 40.3031Z"
    fill="var(--darker-grey)" />
  <path
    d="M72.0823 41.3455C72.7688 41.3455 73.2017 41.1448 73.2017 40.7952C73.2017 40.5103 72.8986 40.3096 72.3854 40.2254L70.8146 39.9405C69.485 39.7074 68.5389 38.9175 68.5389 37.4931C68.5389 35.7838 69.9303 34.7738 71.9958 34.7738C73.8386 34.7738 75.5021 35.4277 75.6134 37.5773H73.3253C73.2759 36.9752 72.7193 36.7032 71.9958 36.7032C71.3217 36.7032 71.0187 36.9557 71.0187 37.2536C71.0187 37.5384 71.2104 37.791 71.835 37.9075L73.2759 38.16C74.7168 38.4449 75.6938 39.183 75.6938 40.6268C75.6938 42.5044 74.0922 43.3461 72.0576 43.3461C70.054 43.3461 68.4028 42.4915 68.2297 40.329L70.5363 40.3484C70.66 41.0412 71.266 41.3455 72.0823 41.3455Z"
    fill="var(--darker-grey)" />
  <path
    d="M85.1554 38.4772V43.1195H82.5581V38.911C82.5581 37.7521 81.9953 37.2341 81.1296 37.2341C80.6658 37.2341 80.171 37.4866 79.7196 38.0046V43.1195H77.1099V31.2128H79.7196V35.5248C80.3442 35.0392 81.0183 34.7673 81.8469 34.7673C83.8073 34.7673 85.1554 36.1593 85.1554 38.4772Z"
    fill="var(--darker-grey)" />
  <path
    d="M95.0005 39.06C95.0005 41.5786 93.2381 43.3332 90.7397 43.3332C88.2413 43.3332 86.4603 41.5721 86.4603 39.06C86.4603 36.5608 88.2413 34.7673 90.7397 34.7673C93.2381 34.7673 95.0005 36.5608 95.0005 39.06ZM92.5702 39.06C92.5702 37.8881 91.8157 37.0464 90.7459 37.0464C89.6575 37.0464 88.903 37.8881 88.903 39.06C88.903 40.2513 89.6575 41.0736 90.7459 41.0736C91.8157 41.0736 92.5702 40.2513 92.5702 39.06Z"
    fill="var(--darker-grey)" />
  <path
    d="M105 39.047C105 41.462 103.238 43.2879 101.141 43.2879C100.294 43.2879 99.6014 43.0548 99.0263 42.6857V47.0107H96.4104V34.9875H99.0201V35.4083C99.5952 35.0393 100.288 34.8062 101.135 34.8062C103.238 34.7997 105 36.6126 105 39.047ZM102.452 39.047C102.452 37.9204 101.685 37.0205 100.628 37.0205C100.065 37.0205 99.5086 37.2018 99.0263 37.778V40.329C99.5086 40.8987 100.065 41.0671 100.628 41.0671C101.685 41.0606 102.452 40.1671 102.452 39.047Z"
    fill="var(--darker-grey)" />
</svg>